# xmcd
#
# Track frame offsets:
#        183
#        5645
#        25368
#        44088
#        64320
#        91108
#        110838
#        132125
#        153978
#        171410
#
# Disc length: 2346 seconds
#
# Revision: 0
# Processed by: cddbd v1.5.1PL2 Copyright (c) Steve Scherf et al.
# Submitted via: ExactAudioCopy v0.95b3
#
DISCID=8909280a
DTITLE=Spina Bifida - Ziyadah
DYEAR=1992
DGENRE=Metal
TTITLE0=Intro
TTITLE1=Witchfire
TTITLE2=Reverse
TTITLE3=Purest Queen
TTITLE4=Individual
TTITLE5=Aimless
TTITLE6=Gotterdammerung
TTITLE7=Verdict
TTITLE8=Die
TTITLE9=Outro
EXTD=
EXTT0=
EXTT1=
EXTT2=
EXTT3=
EXTT4=
EXTT5=
EXTT6=
EXTT7=
EXTT8=
EXTT9=
PLAYORDER=
